<?xml version="1.0" standalone="no"?>
<!DOCTYPE svg PUBLIC "-//W3C//DTD SVG 20010904//EN"
 "http://www.w3.org/TR/2001/REC-SVG-20010904/DTD/svg10.dtd">
<svg version="1.0" xmlns="http://www.w3.org/2000/svg"
 width="150.000000pt" height="150.000000pt" viewBox="0 0 150.000000 150.000000"
 preserveAspectRatio="xMidYMid meet">
<metadata>
Created by potrace 1.14, written by Peter Selinger 2001-2017
</metadata>
<g transform="translate(0.000000,150.000000) scale(0.100000,-0.100000)"
fill="#000000" stroke="none">
<path d="M0 1460 l0 -40 95 0 c52 0 95 -2 95 -5 0 -14 -34 -55 -39 -48 -3 4
-39 7 -78 5 l-73 -4 0 -148 c0 -140 1 -149 20 -155 11 -3 20 -14 20 -24 0 -9
5 -22 12 -29 19 -19 11 -131 -12 -177 -11 -22 -21 -51 -22 -65 -1 -14 -4 0 -8
30 -4 35 -7 -8 -8 -120 l-1 -175 38 78 c51 104 104 157 157 157 9 0 49 16 90
36 67 34 76 36 104 24 17 -7 32 -11 33 -9 2 2 11 21 22 41 l19 37 -29 62 c-17
34 -34 67 -40 73 -16 17 -75 145 -75 162 0 8 18 50 40 91 22 42 40 86 40 99 0
12 9 50 19 83 l19 61 -79 0 c-74 0 -102 -12 -64 -26 8 -4 15 -15 15 -26 0 -10
-4 -17 -9 -13 -5 3 -17 -5 -26 -17 -12 -18 -17 -20 -24 -9 -7 10 -11 6 -15
-17 -6 -23 -11 -29 -26 -25 -21 6 -17 26 12 55 10 10 18 30 18 44 0 14 4 23 9
19 5 -3 12 -1 16 5 4 7 -40 10 -129 10 l-136 0 0 -40z m290 -429 c0 -5 10 -13
22 -17 19 -6 19 -7 5 -16 -10 -5 -17 -15 -17 -23 0 -17 -36 -38 -50 -30 -11 7
-13 55 -4 79 7 17 44 22 44 7z m74 -27 c3 -8 2 -12 -4 -9 -6 3 -10 10 -10 16
0 14 7 11 14 -7z"/>
<path d="M1084 1469 c3 -17 6 -35 6 -40 0 -5 31 -9 69 -9 l69 0 6 31 c3 17 6
35 6 40 0 5 -37 9 -81 9 l-81 0 6 -31z"/>
<path d="M1286 1449 c-22 -59 -40 -69 -127 -69 l-59 0 6 -114 c7 -114 1 -172
-16 -161 -5 3 -12 0 -16 -6 -5 -8 -3 -9 6 -4 10 6 11 1 6 -21 -4 -16 -12 -65
-16 -109 -5 -44 -12 -100 -15 -124 -4 -36 -3 -41 9 -32 11 9 16 9 21 1 4 -7
-8 -27 -26 -46 -25 -26 -35 -31 -39 -20 -4 11 -9 8 -23 -10 -18 -24 -18 -24 5
-24 13 0 41 9 62 19 29 15 36 16 32 5 -7 -19 4 -18 66 6 64 24 58 24 58 2 0
-11 9 -27 20 -37 41 -37 61 -85 86 -211 18 -90 25 -146 21 -188 -5 -65 -41
-260 -52 -288 -7 -17 2 -18 99 -18 l106 0 0 750 0 750 -32 0 c-18 0 -51 -5
-73 -11 -29 -8 -40 -8 -43 0 -2 6 -14 11 -26 11 -17 0 -26 -10 -40 -51z m-40
-107 c-17 -16 -18 -16 -5 5 7 12 15 20 18 17 3 -2 -3 -12 -13 -22z"/>
<path d="M447 1473 c-3 -4 -8 -26 -12 -48 l-6 -40 21 39 c14 25 18 42 12 48
-5 5 -12 6 -15 1z"/>
<path d="M592 1445 c-7 -14 -12 -34 -12 -43 1 -16 2 -16 14 1 7 9 19 17 26 17
7 0 10 7 6 16 -3 9 -6 20 -6 25 0 18 -17 8 -28 -16z"/>
<path d="M1008 1255 c-4 -156 -20 -267 -53 -377 -5 -16 -4 -20 3 -13 13 12 77
254 91 345 6 37 7 66 2 70 -5 3 -11 19 -14 35 -2 17 -7 37 -10 45 -3 8 -8 26
-10 40 -2 14 -6 -51 -9 -145z"/>
<path d="M476 1280 c-26 -22 -52 -40 -56 -40 -10 0 -80 -72 -80 -81 0 -4 6
-14 13 -21 6 -7 28 -36 47 -64 32 -48 36 -50 48 -33 22 32 106 19 86 -12 -6
-11 -4 -11 10 0 23 19 58 89 51 101 -3 5 4 7 15 5 11 -2 20 0 20 6 0 5 -4 9
-9 9 -5 0 -12 11 -15 24 -6 23 -32 38 -88 50 -16 4 -28 11 -28 17 0 6 11 8 29
4 37 -8 46 6 20 34 -11 12 -17 26 -14 31 11 17 1 11 -49 -30z m-12 -66 c9 -3
16 -10 16 -15 0 -14 -24 -11 -46 6 -16 12 -17 14 -2 15 9 0 23 -3 32 -6z"/>
<path d="M735 1239 c-7 -10 10 -28 28 -29 12 0 8 17 -7 29 -11 9 -16 9 -21 0z"/>
<path d="M711 1197 c-38 -9 -70 -42 -71 -71 0 -11 9 -39 21 -63 34 -70 130
-110 193 -82 14 7 27 18 30 26 13 34 -80 187 -119 195 -11 2 -35 0 -54 -5z
m69 -21 c0 -11 -19 -15 -25 -6 -3 5 1 10 9 10 9 0 16 -2 16 -4z m37 -70 c-3
-8 -1 -16 6 -19 8 -2 6 -9 -6 -21 -15 -15 -17 -16 -17 -1 0 12 -4 14 -19 5
-36 -19 -36 -10 -2 20 38 33 46 37 38 16z m9 -119 c10 -10 -38 -9 -55 2 -9 6
-4 8 17 7 17 -1 34 -5 38 -9z"/>
<path d="M1041 904 c0 -11 3 -14 6 -6 3 7 2 16 -1 19 -3 4 -6 -2 -5 -13z"/>
<path d="M480 891 c5 -11 15 -23 21 -27 6 -3 3 5 -6 20 -20 30 -30 35 -15 7z"/>
<path d="M835 808 c-33 -32 -58 -48 -76 -48 -45 0 -39 -11 28 -46 73 -39 111
-39 74 -1 -27 30 -27 41 5 64 19 14 25 26 22 48 l-3 30 -50 -47z"/>
<path d="M372 761 c19 -23 24 -26 32 -13 9 16 -16 42 -42 42 -9 0 -6 -9 10
-29z"/>
<path d="M346 719 c25 -28 51 -41 58 -30 4 5 -9 19 -28 30 -43 27 -54 27 -30
0z"/>
<path d="M695 730 c3 -5 16 -15 28 -21 22 -12 22 -12 3 10 -19 21 -43 30 -31
11z"/>
<path d="M253 687 c81 -40 108 -63 62 -53 -28 7 -27 5 13 -21 40 -27 132 -128
132 -145 0 -14 -17 -8 -35 12 -16 18 -45 28 -45 15 0 -19 67 -119 91 -136 31
-22 30 -39 -1 -39 -22 0 -30 -19 -25 -60 4 -29 -1 -34 -63 -74 -37 -24 -77
-46 -89 -50 -12 -4 -36 -24 -54 -44 -18 -20 -42 -40 -53 -44 -14 -4 -6 -6 24
-7 41 -1 51 4 100 49 29 27 67 55 84 61 17 7 52 30 78 52 26 21 52 36 58 32 6
-4 22 -29 36 -57 37 -73 41 -51 5 29 -29 65 -70 178 -120 328 -13 39 -28 76
-34 82 -13 17 -164 90 -202 98 -18 3 -3 -8 38 -28z m118 -74 c13 -16 12 -17
-3 -4 -17 13 -22 21 -14 21 2 0 10 -8 17 -17z"/>
<path d="M773 678 c11 -10 27 -18 36 -17 10 0 7 4 -8 10 -14 5 -30 13 -36 17
-6 4 -2 -1 8 -10z"/>
<path d="M500 689 c0 -21 29 -80 58 -119 19 -25 62 -100 94 -167 33 -68 63
-125 68 -128 5 -3 -13 42 -41 99 -27 58 -48 109 -47 113 4 11 -82 123 -94 123
-5 0 -7 4 -3 9 3 6 -4 25 -15 43 -11 18 -20 30 -20 27z"/>
<path d="M869 644 c40 -12 130 -9 117 4 -3 2 -40 6 -83 7 l-78 2 44 -13z"/>
<path d="M587 610 c38 -55 137 -151 180 -174 67 -34 94 -10 31 27 -24 14 -69
47 -100 74 -46 39 -99 84 -135 113 -3 3 7 -15 24 -40z"/>
<path d="M726 600 c11 -12 36 -23 55 -25 19 -3 27 -2 19 2 -8 3 -33 15 -55 25
l-40 20 21 -22z"/>
<path d="M455 585 c4 -11 13 -38 20 -60 12 -38 55 -119 55 -103 0 9 -70 172
-77 178 -3 3 -3 -4 2 -15z"/>
<path d="M955 560 c-4 -6 -21 -17 -38 -24 -18 -8 -25 -15 -17 -15 8 -1 33 10
55 24 23 14 33 25 23 25 -9 0 -20 -5 -23 -10z"/>
<path d="M780 531 c0 -17 19 -22 57 -15 36 7 36 8 13 15 -37 10 -70 10 -70 0z"/>
<path d="M781 359 c20 -24 47 -46 60 -47 21 -4 22 -2 9 13 -8 9 -34 31 -59 48
l-46 31 36 -45z"/>
<path d="M555 345 c3 -16 20 -49 36 -73 16 -23 29 -51 29 -61 0 -9 7 -26 16
-37 15 -19 16 -19 9 1 -4 11 -11 31 -15 45 -13 43 -82 159 -75 125z"/>
<path d="M750 180 c0 -31 41 -123 60 -135 24 -15 21 6 -9 66 -17 34 -31 68
-31 75 0 7 -4 16 -10 19 -6 4 -10 -7 -10 -25z"/>
<path d="M651 106 c-11 -13 -11 -24 -1 -61 11 -38 17 -45 37 -45 27 0 26 7 -6
84 -15 34 -18 36 -30 22z"/>
<path d="M392 74 l-33 -34 39 0 c45 0 102 18 102 31 0 9 -22 6 -75 -8 -19 -6
-19 -5 -2 15 31 35 4 31 -31 -4z"/>
<path d="M1015 10 c-3 -5 -2 -10 4 -10 5 0 13 5 16 10 3 6 2 10 -4 10 -5 0
-13 -4 -16 -10z"/>
<path d="M408 3 c7 -3 16 -2 19 1 4 3 -2 6 -13 5 -11 0 -14 -3 -6 -6z"/>
</g>
</svg>
